<?xml version="1.0" encoding="utf-8"?>
<!-- Generator: Adobe Illustrator 27.3.1, SVG Export Plug-In . SVG Version: 6.00 Build 0)  -->
<svg version="1.1" id="Слой_1" xmlns="http://www.w3.org/2000/svg" xmlns:xlink="http://www.w3.org/1999/xlink" x="0px" y="0px"
	 viewBox="0 0 1000 1000" style="enable-background:new 0 0 1000 1000;" xml:space="preserve">
<style type="text/css">
	.st0{fill:#4D4D4D;}
	.st1{fill:#FFFFFF;}
</style>
<path class="st0" d="M813.63,0H186.37C83.44,0,0,83.44,0,186.37v627.26C0,916.56,83.44,1000,186.37,1000h627.26
	c102.93,0,186.37-83.44,186.37-186.37V186.37C1000,83.44,916.56,0,813.63,0z"/>
<path class="st1" d="M322.62,591.88h-100c-12.75,0-23.08,10.33-23.08,23.08V775.4c0,12.74,10.33,23.08,23.08,23.08h100
	c12.75,0,23.08-10.33,23.08-23.08V614.96C345.69,602.21,335.36,591.88,322.62,591.88z"/>
<path class="st1" d="M549.54,385.29h-100c-12.75,0-23.08,10.33-23.08,23.08V775.4c0,12.74,10.33,23.08,23.08,23.08h100
	c12.75,0,23.08-10.33,23.08-23.08V408.36C572.62,395.62,562.28,385.29,549.54,385.29z"/>
<path class="st1" d="M776.46,196.27h-100c-12.75,0-23.08,10.33-23.08,23.08V775.4c0,12.74,10.33,23.08,23.08,23.08h100
	c12.74,0,23.08-10.33,23.08-23.08V219.35C799.54,206.61,789.21,196.27,776.46,196.27z"/>
</svg>
