<?xml version="1.0" encoding="UTF-8"?>
<svg id="_Слой_1" data-name="Слой 1" xmlns="http://www.w3.org/2000/svg" viewBox="0 0 1024 1024">
  <defs>
    <style>
      .cls-1 {
        fill: #fff;
      }

      .cls-2 {
        fill: none;
      }
    </style>
  </defs>
  <rect class="cls-2" x="20.09" y="12" width="1000" height="1000" rx="186.37" ry="186.37"/>
  <path class="cls-1" d="M867.83,480l61.2,32.61-.35,63.18-59.07,36.08,59.07,30.84-.08,112.9-407.17,247.09-4.72.6-408.32-247.69-.03-110.22c.61-2.34,2.57-3.16,4.3-4.43,14.54-10.65,40.88-18.16,56.51-29.09l-61.23-36.97.36-63.19,55.63-29.11c.45-2.95-2.32-3.4-4.08-4.65-6.85-4.87-50.47-29.15-51.54-32.3l-.36-198.54L519.39,20.69c65.92,37.48,133.44,72.27,199.4,109.67,7.18,4.07,19.71,10.08,25.63,14.54,1.98,1.49,3.56,1.85,2.88,4.95l-58.09,29.43-170.85-93.22-314.27,172.13,5.77,5.56,310.53,171.79,312.5-173.91-97.77-56.74,55.45-32,8.09,1.62,130.3,71.43v176.42l-62.88-42.79v-72.49l-316.15,177.29v130.13l238-144.73,49.12,29.36.24,3.61-318.2,198.75-349.93-216.23.35,62.52,348.11,212.83,350.21-213.36v-67.25ZM487.05,614.5v-130.13l-316.15-177.29v111.79l316.15,195.63ZM867.82,612.76l-348.77,207.58-347.28-207.58c-4.06,36.98-.61,73.8-.88,110.92-.05,1.55.89,2.39,1.78,3.46,2.18,2.64,28.85,18.12,34.38,21.51,100.36,61.71,202.26,120.97,302.19,183.39l10.02,3.84,345.23-208.58,3.34-114.54Z"/>
</svg>