<?xml version="1.0" encoding="UTF-8"?>
<svg id="_Слой_1" data-name="Слой 1" xmlns="http://www.w3.org/2000/svg" viewBox="0 0 1024 1024">
  <defs>
    <style>
      .cls-1 {
        fill: #fff;
      }

      .cls-2 {
        fill: #009485;
      }
    </style>
  </defs>
  <rect class="cls-1" x="20.09" y="12" width="1000" height="1000" rx="186.37" ry="186.37"/>
  <path d="M812.1,491.51l51.44,27.41-.3,53.1-49.65,30.33,49.64,25.92-.07,94.89-342.22,207.67-3.97.5-343.18-208.17-.03-92.64c.52-1.97,2.16-2.66,3.62-3.72,12.22-8.95,34.36-15.26,47.5-24.45l-51.46-31.07.3-53.11,46.76-24.47c.38-2.48-1.95-2.86-3.43-3.91-5.76-4.09-42.42-24.5-43.32-27.15l-.3-166.87,345.81-190.3c55.4,31.51,112.16,60.74,167.59,92.18,6.04,3.42,16.57,8.47,21.54,12.22,1.67,1.26,2.99,1.56,2.42,4.16l-48.83,24.73-143.59-78.35-264.14,144.67,4.85,4.67,260.99,144.39,262.65-146.17-82.18-47.69,46.6-26.89,6.8,1.36,109.52,60.03v148.27l-52.85-35.97v-60.92l-265.72,149.01v109.37l200.04-121.65,41.28,24.68.2,3.03-267.44,167.04-294.11-181.74.3,52.55,292.58,178.88,294.34-179.32v-56.52ZM492.07,604.55v-109.37l-265.72-149.01v93.96l265.72,164.42ZM812.1,603.08l-293.14,174.46-291.88-174.46c-3.41,31.08-.51,62.03-.74,93.22-.04,1.3.74,2.01,1.49,2.91,1.83,2.21,24.25,15.23,28.9,18.08,84.35,51.86,170,101.67,253.98,154.13l8.42,3.22,290.16-175.31,2.81-96.27Z"/>
  <line class="cls-2" x1="464.83" y1="587.96" x2="518.49" y2="620.63"/>
  <line class="cls-2" x1="544.92" y1="604.55" x2="518.49" y2="620.63"/>
  <rect class="cls-1" x="446.84" y="559.65" width="88.87" height="40.72" transform="translate(383.61 -172.43) rotate(32.12)"/>
  <rect class="cls-1" x="501.4" y="561.85" width="88.39" height="38.89" transform="translate(-222.68 368.38) rotate(-31.32)"/>
</svg>